<svg width="17" height="17" viewBox="0 0 17 17" fill="none" xmlns="http://www.w3.org/2000/svg">
<path d="M7.41699 0C11.513 0.000176008 14.833 3.32099 14.833 7.41699C14.8329 9.19474 14.206 10.8251 13.1631 12.1025L16.2812 15.2197C16.5737 15.5127 16.574 15.9885 16.2812 16.2812C15.9885 16.574 15.5127 16.5737 15.2197 16.2812L12.1025 13.1631C10.8251 14.206 9.19474 14.8329 7.41699 14.833C3.32099 14.833 0.000176005 11.513 0 7.41699C0 3.32088 3.32088 0 7.41699 0ZM7.41699 1.5C4.14931 1.5 1.5 4.14931 1.5 7.41699C1.50018 10.6845 4.14942 13.333 7.41699 13.333C10.6844 13.3328 13.3328 10.6844 13.333 7.41699C13.333 4.14942 10.6845 1.50018 7.41699 1.5Z" fill="#F8FAFC"/>
</svg>
