<svg width="24" height="24" viewBox="0 0 24 24" fill="none" xmlns="http://www.w3.org/2000/svg">
<path d="M12.409 13.017C12.8648 11.9604 13.6712 11.0934 14.692 10.5622C15.7127 10.031 16.8855 9.86815 18.0124 10.1011C19.1393 10.3341 20.1513 10.9487 20.8778 11.8411C21.6042 12.7336 22.0006 13.8493 22 15C22 18.866 18 22 13 22C8.92303 22 4.84703 21.18 2.62903 19.538C2.20303 19.222 1.99803 18.706 2.00903 18.176C2.11803 12.723 2.62703 2 10 2C10.7957 2 11.5587 2.31607 12.1213 2.87868C12.684 3.44129 13 4.20435 13 5C13 5.53043 12.7893 6.03914 12.4142 6.41421C12.0392 6.78929 11.5305 7 11 7C9.89503 7 9.36003 6.556 9.00003 6" stroke="#437C6D" stroke-width="1.5" stroke-linecap="round" stroke-linejoin="round"/>
<path d="M15 14.0001C14.3965 13.5472 13.6983 13.2368 12.9578 13.0921C12.2172 12.9474 11.4536 12.9722 10.724 13.1646C9.99437 13.357 9.31778 13.712 8.7449 14.2031C8.17202 14.6941 7.71771 15.3085 7.41602 16.0001" stroke="#437C6D" stroke-width="1.5" stroke-linecap="round" stroke-linejoin="round"/>
<path d="M9.964 6.82495C8.019 7.97695 9.5 13 8 15" stroke="#437C6D" stroke-width="1.5" stroke-linecap="round" stroke-linejoin="round"/>
</svg>
