<svg width="19" height="19" viewBox="0 0 19 19" fill="none" xmlns="http://www.w3.org/2000/svg">
<path d="M9.08301 0C14.0993 0.000175944 18.1668 4.06668 18.167 9.08301C18.1668 14.0993 14.0993 18.1668 9.08301 18.167C4.06668 18.1668 0.000175948 14.0993 0 9.08301C0.000175813 4.06668 4.06668 0.000175809 9.08301 0ZM9.08301 1.5C4.89511 1.50018 1.50018 4.89511 1.5 9.08301C1.50018 13.2709 4.89511 16.6668 9.08301 16.667C13.2709 16.6668 16.6668 13.2709 16.667 9.08301C16.6668 4.89511 13.2709 1.50018 9.08301 1.5ZM9.08301 7.5C9.9572 7.50018 10.6668 8.20881 10.667 9.08301C10.6668 9.9572 9.9572 10.6668 9.08301 10.667C8.20881 10.6668 7.50018 9.9572 7.5 9.08301C7.50018 8.20882 8.20882 7.50018 9.08301 7.5ZM9.08301 9C9.03724 9.00018 9.00018 9.03724 9 9.08301C9.00018 9.12878 9.03724 9.16682 9.08301 9.16699C9.12878 9.16681 9.16681 9.12878 9.16699 9.08301C9.16682 9.03724 9.12878 9.00018 9.08301 9Z" fill="#F8FAFC"/>
</svg>
