<svg width="32" height="32" viewBox="0 0 32 32" fill="none" xmlns="http://www.w3.org/2000/svg">
<path d="M26.6667 12V8.00004C26.6667 7.2928 26.3857 6.61452 25.8856 6.11442C25.3855 5.61433 24.7072 5.33337 24 5.33337H8C7.29276 5.33337 6.61448 5.61433 6.11438 6.11442C5.61429 6.61452 5.33334 7.2928 5.33334 8.00004V12" stroke="#437C6D" stroke-width="1.5" stroke-linecap="round" stroke-linejoin="round"/>
<path d="M2.66666 21.3333C2.66666 22.0406 2.94762 22.7189 3.44771 23.219C3.94781 23.719 4.62609 24 5.33333 24H26.6667C27.3739 24 28.0522 23.719 28.5523 23.219C29.0524 22.7189 29.3333 22.0406 29.3333 21.3333V14.6667C29.3333 13.9594 29.0524 13.2811 28.5523 12.781C28.0522 12.281 27.3739 12 26.6667 12C25.9594 12 25.2811 12.281 24.781 12.781C24.2809 13.2811 24 13.9594 24 14.6667V16.6667C24 16.8435 23.9298 17.013 23.8047 17.1381C23.6797 17.2631 23.5101 17.3333 23.3333 17.3333H8.66666C8.48985 17.3333 8.32028 17.2631 8.19526 17.1381C8.07024 17.013 8 16.8435 8 16.6667V14.6667C8 13.9594 7.71905 13.2811 7.21895 12.781C6.71885 12.281 6.04057 12 5.33333 12C4.62609 12 3.94781 12.281 3.44771 12.781C2.94762 13.2811 2.66666 13.9594 2.66666 14.6667V21.3333Z" stroke="#437C6D" stroke-width="1.5" stroke-linecap="round" stroke-linejoin="round"/>
<path d="M5.33334 24V26.6667" stroke="#437C6D" stroke-width="1.5" stroke-linecap="round" stroke-linejoin="round"/>
<path d="M26.6667 24V26.6667" stroke="#437C6D" stroke-width="1.5" stroke-linecap="round" stroke-linejoin="round"/>
<path d="M16 5.33337V17.3334" stroke="#437C6D" stroke-width="1.5" stroke-linecap="round" stroke-linejoin="round"/>
</svg>
