<svg width="17" height="17" viewBox="0 0 17 17" fill="none" xmlns="http://www.w3.org/2000/svg">
<path d="M14.3584 0.00488281C15.0297 0.0450256 15.6631 0.33015 16.1387 0.805664C16.6142 1.28119 16.8992 1.91466 16.9395 2.58594C16.9687 3.07634 16.864 3.56176 16.6445 3.99414C16.7524 4.21764 16.8307 4.45533 16.875 4.70117C16.9512 5.1244 16.9272 5.56044 16.8047 5.97266C16.6822 6.38462 16.4647 6.76243 16.1699 7.0752C16.1047 7.14433 16.0347 7.20885 15.9629 7.27051C16.0813 7.30577 16.1913 7.36707 16.2803 7.45605C16.4209 7.5967 16.5 7.78743 16.5 7.98633C16.5 10.1743 15.6311 12.2731 14.084 13.8203C13.6951 14.2092 13.2706 14.5543 12.8193 14.8545C13.0278 14.9877 13.166 15.2206 13.166 15.4863C13.166 15.9005 12.8302 16.2363 12.416 16.2363H4.08301C3.66896 16.2362 3.33303 15.9004 3.33301 15.4863C3.33301 15.2208 3.47151 14.9878 3.67969 14.8545C3.22865 14.5544 2.80475 14.209 2.41602 13.8203C0.868851 12.2731 1.18026e-05 10.1743 0 7.98633C0 7.78743 0.0790882 7.5967 0.219727 7.45605C0.360379 7.3154 0.551088 7.23633 0.75 7.23633H0.94043C0.892294 7.02931 0.857774 6.81617 0.842773 6.59766L0.833008 6.31934C0.829684 5.50196 1.0723 4.70219 1.5293 4.02441C1.987 3.3456 2.63891 2.82074 3.39941 2.51758C4.15994 2.21447 4.9948 2.14736 5.79395 2.3252C6.12857 2.39973 6.4496 2.51835 6.75195 2.67188C6.90984 2.2155 7.18536 1.80765 7.55078 1.49121C7.92712 1.16553 8.38578 0.947355 8.87598 0.861328C9.1781 0.808374 9.48586 0.806375 9.78613 0.854492C9.91741 0.719939 10.0629 0.598666 10.2197 0.493164C10.5346 0.281392 10.8903 0.137134 11.2637 0.0693359C11.637 0.00159016 12.0205 0.0120376 12.3896 0.0996094C12.5834 0.145604 12.7708 0.213726 12.9492 0.299805C13.3818 0.0800294 13.8677 -0.0244172 14.3584 0.00488281ZM1.54395 8.73633C1.71325 10.2505 2.38881 11.672 3.47656 12.7598C4.74243 14.0256 6.4598 14.7363 8.25 14.7363C10.0402 14.7363 11.7576 14.0256 13.0234 12.7598C14.1112 11.672 14.7867 10.2505 14.9561 8.73633H1.54395ZM5.46777 3.78906C4.96299 3.67676 4.43549 3.7188 3.95508 3.91016C3.47452 4.10172 3.06266 4.43435 2.77344 4.86328C2.48425 5.29218 2.33046 5.79816 2.33301 6.31543V6.31934C2.33301 6.64188 2.39481 6.94997 2.50488 7.23633H5.26758C5.10651 6.92084 5.00474 6.57501 4.97461 6.21582C4.91673 5.52445 5.12197 4.83621 5.5498 4.29004C5.65371 4.15746 5.76877 4.03557 5.89355 3.92578C5.75628 3.86886 5.61416 3.82166 5.46777 3.78906ZM14.2686 1.50195C13.9636 1.48383 13.6621 1.57885 13.4219 1.76758C13.1544 1.97766 12.7785 1.98105 12.5068 1.77637C12.3692 1.67276 12.2116 1.59842 12.0439 1.55859C11.8761 1.51876 11.701 1.51414 11.5312 1.54492C11.3618 1.57575 11.2006 1.64217 11.0576 1.73828C10.9147 1.83446 10.7927 1.95912 10.7002 2.10449C10.509 2.40551 10.1319 2.53069 9.79883 2.40332C9.58761 2.32235 9.35757 2.29981 9.13477 2.33887C8.91214 2.37796 8.70417 2.47715 8.5332 2.625C8.36222 2.77301 8.23376 2.96488 8.16309 3.17969C8.09248 3.39454 8.08205 3.6251 8.13184 3.8457C8.17744 4.04769 8.13749 4.26012 8.02148 4.43164C7.90536 4.60311 7.72303 4.71922 7.51855 4.75195C7.51371 4.75273 7.50874 4.75405 7.50391 4.75488C7.48077 4.76029 7.45802 4.76635 7.43457 4.76953C7.15675 4.83342 6.90734 4.98923 6.73047 5.21484C6.53603 5.46306 6.4425 5.77662 6.46875 6.09082C6.49518 6.40499 6.64001 6.69779 6.87305 6.91016C7.10621 7.12254 7.41118 7.23927 7.72656 7.23633H8.77246L11.8857 4.12305C12.1786 3.83021 12.6534 3.83032 12.9463 4.12305C13.2392 4.41594 13.2392 4.89071 12.9463 5.18359L10.8936 7.23633H14.1201C14.0361 6.86833 14.2381 6.49348 14.5947 6.36426C14.7783 6.29771 14.9441 6.18888 15.0781 6.04688C15.2121 5.90468 15.3115 5.73222 15.3672 5.54492C15.4228 5.35764 15.434 5.15907 15.3994 4.9668C15.3647 4.77464 15.2854 4.59253 15.168 4.43652C14.9637 4.16488 14.9668 3.78977 15.1768 3.52246C15.3655 3.28219 15.4605 2.98077 15.4424 2.67578C15.4241 2.3707 15.2942 2.08233 15.0781 1.86621C14.862 1.65012 14.5737 1.5202 14.2686 1.50195Z" fill="#F8FAFC"/>
</svg>
