<svg width="32" height="32" viewBox="0 0 32 32" fill="none" xmlns="http://www.w3.org/2000/svg">
<path d="M16 29.3334C23.3638 29.3334 29.3333 23.3639 29.3333 16.0001C29.3333 8.63628 23.3638 2.66675 16 2.66675C8.6362 2.66675 2.66666 8.63628 2.66666 16.0001C2.66666 23.3639 8.6362 29.3334 16 29.3334Z" stroke="#437C6D" stroke-width="1.5" stroke-linecap="round" stroke-linejoin="round"/>
<path d="M24 17.3333C23.6819 19.2165 22.7005 20.9238 21.2332 22.1465C19.766 23.3692 17.9097 24.0266 16 23.9999C14.0903 24.0266 12.234 23.3692 10.7668 22.1465C9.29952 20.9238 8.31813 19.2165 8 17.3333H24Z" stroke="#437C6D" stroke-width="1.5" stroke-linecap="round" stroke-linejoin="round"/>
<path d="M12 12H12.0133" stroke="#437C6D" stroke-width="1.5" stroke-linecap="round" stroke-linejoin="round"/>
<path d="M20 12H20.0133" stroke="#437C6D" stroke-width="1.5" stroke-linecap="round" stroke-linejoin="round"/>
</svg>
