<svg width="32" height="32" viewBox="0 0 32 32" fill="none" xmlns="http://www.w3.org/2000/svg">
<path d="M9.33334 26.6667H22.6667" stroke="#437C6D" stroke-width="1.5" stroke-linecap="round" stroke-linejoin="round"/>
<path d="M13.3333 26.6666C20.6667 23.3333 14.4 18.1333 17.3333 13.3333" stroke="#437C6D" stroke-width="1.5" stroke-linecap="round" stroke-linejoin="round"/>
<path d="M12.6667 12.5333C14.1333 13.6 15.0667 15.4666 15.7333 17.4666C13.0667 18 11.0667 18 9.33334 17.0666C7.73334 16.2666 6.26667 14.5333 5.33334 11.4666C9.06667 10.8 11.2 11.4666 12.6667 12.5333Z" stroke="#437C6D" stroke-width="1.5" stroke-linecap="round" stroke-linejoin="round"/>
<path d="M18.8 7.99992C17.7835 9.58866 17.2721 11.4481 17.3333 13.3333C19.8667 13.1999 21.7333 12.5333 23.0667 11.4666C24.4 10.1333 25.2 8.39992 25.3333 5.33325C21.7333 5.46659 20 6.66659 18.8 7.99992Z" stroke="#437C6D" stroke-width="1.5" stroke-linecap="round" stroke-linejoin="round"/>
</svg>
