<svg width="19" height="15" viewBox="0 0 19 15" fill="none" xmlns="http://www.w3.org/2000/svg">
<path d="M17.417 13.334C17.8309 13.3343 18.167 13.67 18.167 14.084C18.1668 14.4978 17.8308 14.8336 17.417 14.834H0.75C0.335895 14.834 0.000176288 14.498 0 14.084C0 13.6698 0.335786 13.334 0.75 13.334H17.417ZM11.583 4.16699C12.9175 4.16717 13.999 5.2494 13.999 6.58398V8.25C13.999 9.58458 12.9175 10.6668 11.583 10.667H6.58301C5.24847 10.6668 4.16602 9.58458 4.16602 8.25V6.58398C4.16602 5.2494 5.24847 4.16717 6.58301 4.16699H11.583ZM6.58301 5.66699C6.0769 5.66717 5.66602 6.07783 5.66602 6.58398V8.25C5.66602 8.75615 6.0769 9.16682 6.58301 9.16699H11.583C12.0891 9.16682 12.499 8.75615 12.499 8.25V6.58398C12.499 6.07783 12.0891 5.66717 11.583 5.66699H6.58301ZM17.417 0C17.8308 0.000351623 18.1668 0.336153 18.167 0.75C18.167 1.164 17.8309 1.49965 17.417 1.5H0.75C0.335786 1.5 0 1.16421 0 0.75C0.000175901 0.335936 0.335895 0 0.75 0H17.417Z" fill="#F8FAFC"/>
</svg>
