<svg width="32" height="32" viewBox="0 0 32 32" fill="none" xmlns="http://www.w3.org/2000/svg">
<path d="M22.6667 13.3333C23.6 12.4 24.92 13.3333 26 13.3333C26.8841 13.3333 27.7319 12.9821 28.357 12.357C28.9821 11.7319 29.3333 10.884 29.3333 9.99996C29.3333 9.1159 28.9821 8.26806 28.357 7.64294C27.7319 7.01782 26.8841 6.66663 26 6.66663C25.8232 6.66663 25.6536 6.59639 25.5286 6.47136C25.4036 6.34634 25.3333 6.17677 25.3333 5.99996C25.3333 5.1159 24.9821 4.26806 24.357 3.64294C23.7319 3.01782 22.8841 2.66663 22 2.66663C21.1159 2.66663 20.2681 3.01782 19.643 3.64294C19.0179 4.26806 18.6667 5.1159 18.6667 5.99996C18.6667 7.07996 19.6 8.39996 18.6667 9.33329L9.33333 18.6666C8.4 19.6 7.08 18.6666 6 18.6666C5.11594 18.6666 4.2681 19.0178 3.64297 19.6429C3.01785 20.2681 2.66666 21.1159 2.66666 22C2.66666 22.884 3.01785 23.7319 3.64297 24.357C4.2681 24.9821 5.11594 25.3333 6 25.3333C6.37333 25.3333 6.66666 25.6266 6.66666 26C6.66666 26.884 7.01785 27.7319 7.64297 28.357C8.2681 28.9821 9.11594 29.3333 10 29.3333C10.8841 29.3333 11.7319 28.9821 12.357 28.357C12.9821 27.7319 13.3333 26.884 13.3333 26C13.3333 24.92 12.4 23.6 13.3333 22.6666L22.6667 13.3333Z" stroke="#437C6D" stroke-width="1.5" stroke-linecap="round" stroke-linejoin="round"/>
</svg>
