<svg width="20" height="20" viewBox="0 0 20 20" fill="none" xmlns="http://www.w3.org/2000/svg">
<path d="M3.20833 7.18358C3.0867 6.63568 3.10538 6.06595 3.26263 5.52719C3.41988 4.98844 3.71062 4.49811 4.10789 4.10168C4.50516 3.70524 4.99609 3.41553 5.53517 3.25941C6.07425 3.10328 6.64403 3.0858 7.19167 3.20858C7.49309 2.73716 7.90834 2.34921 8.39913 2.08048C8.88992 1.81175 9.44046 1.6709 10 1.6709C10.5595 1.6709 11.1101 1.81175 11.6009 2.08048C12.0917 2.34921 12.5069 2.73716 12.8083 3.20858C13.3568 3.08526 13.9276 3.10267 14.4675 3.25917C15.0074 3.41568 15.499 3.70619 15.8965 4.10371C16.294 4.50122 16.5846 4.9928 16.7411 5.53275C16.8976 6.07269 16.915 6.64344 16.7917 7.19191C17.2631 7.49334 17.651 7.90858 17.9198 8.39937C18.1885 8.89016 18.3293 9.4407 18.3293 10.0002C18.3293 10.5598 18.1885 11.1103 17.9198 11.6011C17.651 12.0919 17.2631 12.5072 16.7917 12.8086C16.9144 13.3562 16.897 13.926 16.7408 14.4651C16.5847 15.0042 16.295 15.4951 15.8986 15.8924C15.5021 16.2896 15.0118 16.5804 14.4731 16.7376C13.9343 16.8949 13.3646 16.9135 12.8167 16.7919C12.5156 17.2651 12.1001 17.6547 11.6084 17.9247C11.1168 18.1946 10.565 18.3361 10.0042 18.3361C9.44331 18.3361 8.89152 18.1946 8.3999 17.9247C7.90827 17.6547 7.4927 17.2651 7.19167 16.7919C6.64403 16.9147 6.07425 16.8972 5.53517 16.7411C4.99609 16.585 4.50516 16.2952 4.10789 15.8988C3.71062 15.5024 3.41988 15.012 3.26263 14.4733C3.10538 13.9345 3.0867 13.3648 3.20833 12.8169C2.7333 12.5163 2.34201 12.1004 2.07087 11.6079C1.79974 11.1155 1.65755 10.5624 1.65755 10.0002C1.65755 9.43807 1.79974 8.88503 2.07087 8.39257C2.34201 7.9001 2.7333 7.48421 3.20833 7.18358Z" stroke="#437C6D" stroke-width="1.5" stroke-linecap="round" stroke-linejoin="round"/>
<path d="M7.5 10.0002L9.16667 11.6668L12.5 8.3335" stroke="#437C6D" stroke-width="1.5" stroke-linecap="round" stroke-linejoin="round"/>
</svg>
