<svg width="32" height="32" viewBox="0 0 32 32" fill="none" xmlns="http://www.w3.org/2000/svg">
<path d="M21.3333 21.3333L25.3333 10.6666L29.3333 21.3333C28.1733 22.2 26.7733 22.6666 25.3333 22.6666C23.8933 22.6666 22.4933 22.2 21.3333 21.3333Z" stroke="#437C6D" stroke-width="1.5" stroke-linecap="round" stroke-linejoin="round"/>
<path d="M2.66666 21.3333L6.66666 10.6666L10.6667 21.3333C9.50666 22.2 8.10666 22.6666 6.66666 22.6666C5.22666 22.6666 3.82666 22.2 2.66666 21.3333Z" stroke="#437C6D" stroke-width="1.5" stroke-linecap="round" stroke-linejoin="round"/>
<path d="M9.33334 28H22.6667" stroke="#437C6D" stroke-width="1.5" stroke-linecap="round" stroke-linejoin="round"/>
<path d="M16 4V28" stroke="#437C6D" stroke-width="1.5" stroke-linecap="round" stroke-linejoin="round"/>
<path d="M4 9.33329H6.66667C9.33333 9.33329 13.3333 7.99996 16 6.66663C18.6667 7.99996 22.6667 9.33329 25.3333 9.33329H28" stroke="#437C6D" stroke-width="1.5" stroke-linecap="round" stroke-linejoin="round"/>
</svg>
