<svg width="19" height="19" viewBox="0 0 19 19" fill="none" xmlns="http://www.w3.org/2000/svg">
<path d="M9.08203 0C9.33646 6.88107e-06 9.58434 0.0836357 9.78711 0.237305C9.9645 0.371871 10.0999 0.554153 10.1768 0.761719L10.2061 0.852539L10.21 0.867188L11.5273 5.97949C11.5682 6.13788 11.651 6.28269 11.7666 6.39844C11.8824 6.51425 12.0279 6.59677 12.1865 6.6377H12.1855L17.2988 7.95605L17.3105 7.95898C17.5261 8.01843 17.7196 8.13846 17.8682 8.30371L17.9287 8.37695L17.9834 8.45508C18.1029 8.64204 18.1669 8.86076 18.167 9.08398C18.1669 9.33896 18.0831 9.5871 17.9287 9.79004C17.774 9.99316 17.5567 10.1401 17.3105 10.208L17.2988 10.2119L12.1855 11.5283L12.1865 11.5293C12.028 11.5702 11.8824 11.6528 11.7666 11.7686C11.6799 11.8553 11.6113 11.9585 11.5654 12.0713L11.5273 12.1875L10.209 17.2998C10.2078 17.3045 10.2064 17.3098 10.2051 17.3145C10.1365 17.5594 9.98966 17.7758 9.78711 17.9297C9.58437 18.0835 9.3365 18.1669 9.08203 18.167C8.82747 18.167 8.57978 18.0835 8.37695 17.9297C8.1742 17.7758 8.02661 17.5596 7.95801 17.3145C7.9567 17.3097 7.95532 17.3045 7.9541 17.2998L6.63672 12.1875C6.59578 12.0292 6.51307 11.8842 6.39746 11.7686C6.28179 11.653 6.13683 11.5702 5.97852 11.5293L0.865234 10.2109C0.859497 10.2095 0.853354 10.2077 0.847656 10.2061C0.603759 10.1367 0.389275 9.98935 0.236328 9.78711C0.102597 9.61003 0.0218995 9.39858 0.00390625 9.17871L0 9.08398L0.00390625 8.98828C0.0219948 8.76849 0.102584 8.55687 0.236328 8.37988C0.389281 8.17779 0.603855 8.03022 0.847656 7.96094C0.853344 7.95932 0.859515 7.95753 0.865234 7.95605L5.97754 6.6377H5.97852C6.13689 6.59679 6.28174 6.51405 6.39746 6.39844C6.51307 6.28282 6.59572 6.13777 6.63672 5.97949L7.95508 0.867188L7.95898 0.852539C8.02761 0.607661 8.17439 0.391078 8.37695 0.237305C8.57964 0.0836309 8.82768 9.75087e-05 9.08203 0ZM8.08887 6.35449C7.98086 6.7722 7.76309 7.15393 7.45801 7.45898C7.15268 7.7641 6.77051 7.98206 6.35254 8.08984L2.50195 9.08301L6.35254 10.0762C6.77061 10.184 7.15267 10.4027 7.45801 10.708C7.76307 11.0131 7.98094 11.3947 8.08887 11.8125V11.8135L9.08105 15.666L10.0752 11.8125C10.1831 11.3948 10.401 11.0131 10.7061 10.708C11.0114 10.4028 11.3935 10.184 11.8115 10.0762L15.6631 9.08301L11.8115 8.09082C11.3934 7.98294 11.0114 7.76434 10.7061 7.45898C10.401 7.15377 10.183 6.77232 10.0752 6.35449L9.08203 2.50098L8.08887 6.35449Z" fill="#F8FAFC"/>
</svg>
