<svg width="18" height="19" viewBox="0 0 18 19" fill="none" xmlns="http://www.w3.org/2000/svg">
<path d="M9.08301 0C10.2057 0.000124685 11.1589 0.645161 11.8828 1.55469C12.5394 2.37983 13.0585 3.48366 13.4189 4.74316C13.8611 4.86958 14.2818 5.01394 14.6758 5.17676C16.1919 5.80348 17.448 6.74288 17.9453 7.9668C18.1012 8.35042 17.9157 8.78831 17.5322 8.94434C17.1485 9.10017 16.7106 8.91498 16.5547 8.53125C16.2793 7.85402 15.4678 7.12679 14.1025 6.5625C12.7656 6.00995 11.0159 5.66605 9.08301 5.66602C7.97262 5.66604 6.92408 5.7797 5.98047 5.98047C5.7797 6.92408 5.66604 7.97262 5.66602 9.08301C5.66604 10.193 5.77983 11.241 5.98047 12.1846C6.92417 12.3851 7.97258 12.499 9.08301 12.499C10.541 12.499 11.8913 12.3025 13.0391 11.9707L11.416 11.1797C11.044 10.998 10.8899 10.5489 11.0713 10.1768C11.253 9.80474 11.7021 9.65053 12.0742 9.83203L15.252 11.3818C15.6239 11.5636 15.7791 12.0126 15.5977 12.3848L14.0479 15.5625C13.8664 15.9345 13.4171 16.0893 13.0449 15.9082C12.6727 15.7267 12.5177 15.2776 12.6992 14.9053L13.4219 13.4209C12.1272 13.7913 10.6461 13.999 9.08301 13.999C8.16804 13.999 7.28059 13.9279 6.44238 13.7949C6.55455 14.096 6.67671 14.3788 6.80762 14.6406C7.52168 16.0685 8.36984 16.6668 9.08301 16.667C9.26488 16.6669 9.44854 16.6297 9.63379 16.5547C10.0176 16.399 10.4556 16.5841 10.6113 16.9678C10.7669 17.3515 10.5819 17.7896 10.1982 17.9453C9.84568 18.0882 9.47057 18.1669 9.08301 18.167C7.49572 18.1668 6.25969 16.899 5.46582 15.3115C5.18253 14.745 4.94096 14.109 4.74414 13.4209C4.05668 13.2242 3.42165 12.9823 2.85547 12.6992C1.26787 11.9054 0.000173314 10.6704 0 9.08301C0.000173389 7.49562 1.26786 6.25968 2.85547 5.46582C3.42163 5.18276 4.05671 4.94087 4.74414 4.74414C4.94087 4.05671 5.18276 3.42163 5.46582 2.85547C6.25968 1.26786 7.49562 0.000173389 9.08301 0ZM4.37012 6.44238C4.06961 6.55438 3.78773 6.67695 3.52637 6.80762C2.09826 7.52172 1.50018 8.36979 1.5 9.08301C1.50018 9.79623 2.09826 10.6443 3.52637 11.3584C3.78765 11.489 4.06969 11.6107 4.37012 11.7227C4.2372 10.8846 4.16603 9.99764 4.16602 9.08301C4.16603 8.16808 4.23711 7.28056 4.37012 6.44238ZM9.08301 1.5C8.36979 1.50018 7.52172 2.09826 6.80762 3.52637C6.67695 3.78773 6.55438 4.06961 6.44238 4.37012C7.28056 4.23711 8.16808 4.16603 9.08301 4.16602C9.99732 4.16603 10.8833 4.2366 11.7197 4.36914C11.4339 3.60299 11.0888 2.96654 10.709 2.48926C10.1504 1.78739 9.58659 1.50012 9.08301 1.5Z" fill="#F8FAFC"/>
</svg>
